<svg xmlns="http://www.w3.org/2000/svg" version="1.1" id="svg5158" x="0" y="0" xml:space="preserve" width="913.5" height="1048"><style type="text/css" id="style923">.st0{fill:#333}</style><path id="polygon5306" class="st0" style="fill:#333" transform="translate(-356.9 -164.4)" d="m969 614.2-133 78.9 133 75.7 134.4-75.7z"/><path id="polygon5308" class="st0" style="fill:#333" transform="translate(-356.9 -164.4)" d="m948.9 782.7-75.8-43.3-46.3-27.8v140.7z"/><path id="polygon5310" class="st0" style="fill:#333" transform="translate(-356.9 -164.4)" d="m814.4 164.4-132.9 77.3L814.4 319l134.5-77.3z"/><path id="polygon5312" class="st0" style="fill:#333" transform="translate(-356.9 -164.4)" d="m969 408.7 12.3-6.2 122.1-69.6-122.1-72.6-12.3-6.2-133 78.8 123.7 69.6z"/><path id="polygon5314" class="st0" style="fill:#333" transform="translate(-356.9 -164.4)" d="M959.7 441.1v-12.3l-10.8-6.2-89.7-52.6-32.4-18.5v153l9.2 7.7 123.7 69.6z"/><path id="polygon5316" class="st0" style="fill:#333" transform="translate(-356.9 -164.4)" d="m647.5 260.3-122.2 72.6 122.2 69.6 10.8 6.2 10.8-6.2 123.7-69.6-74.2-43.3-49.5-29.3-10.8-6.2z"/><path id="polygon5318" class="st0" style="fill:#333" transform="translate(-356.9 -164.4)" d="m803.6 351.5-122.1 71.1-12.4 6.2v153l123.7-69.6 10.8-7.7v-12.4z"/><path id="polygon5320" class="st0" style="fill:#333" transform="translate(-356.9 -164.4)" d="m1114.3 852.3 12.3 6.2 10.8-6.2 122.1-69.6-122.1-71.1-10.8-6.2-12.3 6.2-3.1 1.6-32.5 20.1h-3.1l-83.5 49.4z"/><path id="polygon5322" class="st0" style="fill:#333" transform="translate(-356.9 -164.4)" d="M1270.4 954.3v-153l-133 77.3v154.5z"/><path id="polygon5324" class="st0" style="fill:#333" transform="translate(-356.9 -164.4)" d="m1126.6 345.3-12.3 6.2-29.4 17-12.4 6.2-80.4 47.9 122.2 69.5 12.3 6.2 10.8-6.2 122.1-69.5-122.1-71.1z"/><path id="polygon5326" class="st0" style="fill:#333" transform="translate(-356.9 -164.4)" d="m1114.3 518.4-10.9-6.2-122.1-71.1v153l10.8 7.8 92.8 52.5 29.4 18.6V530.8z"/><path id="polygon5328" class="st0" style="fill:#333" transform="translate(-356.9 -164.4)" d="M1137.4 518.4V673l133-78.9v-153l-133 77.3z"/><path id="polygon5330" class="st0" style="fill:#333" transform="translate(-356.9 -164.4)" d="m969 948.1 12.3-4.6 46.4-27.8 75.7-43.3-122.1-71.1-12.3-6.2-9.3 6.2-122.1 71.1 122.1 71.1z"/><path id="polygon5332" class="st0" style="fill:#333" transform="translate(-356.9 -164.4)" d="M1114.3 1033.1V890.9l-44.9 27.8-77.3 43.3-10.8 6.2v154.6l122.1-69.6 10.9-7.7z"/><path id="polygon5334" class="st0" style="fill:#333" transform="translate(-356.9 -164.4)" d="m356.9 954.3 132.9 78.8V878.6l-85-51.1-47.9-26.2z"/><path id="polygon5336" class="st0" style="fill:#333" transform="translate(-356.9 -164.4)" d="m647.5 943.5 10.8 4.6 10.8-4.6 123.7-71.1-123.7-71.1-10.8-6.2-10.8 6.2-49.5 27.8-72.7 43.3z"/><path id="polygon5338" class="st0" style="fill:#333" transform="translate(-356.9 -164.4)" d="M647.5 980.6v-12.4l-12.4-6.2L513 890.9v154.6l12.3 7.7 122.2 69.6z"/><path id="polygon5340" class="st0" style="fill:#333" transform="translate(-356.9 -164.4)" d="m826.8 890.9-12.4-6.2-10.8 6.2-114.4 64.9-7.7 6.2 122.1 71.1 10.8 6.2 12.4-6.2L948.9 962z"/><path id="polygon5342" class="st0" style="fill:#333" transform="translate(-356.9 -164.4)" d="M803.6 1071.8v-12.4l-10.8-6.2-77.3-44.8-46.4-27.8v154.5l12.4 7.8 122.1 69.5z"/><path id="polygon5344" class="st0" style="fill:#333" transform="translate(-356.9 -164.4)" d="M826.8 1071.8v140.6l122.1-69.5 10.8-7.8V980.6L836 1053.2l-9.2 6.2z"/><path id="polygon5346" class="st0" style="fill:#333" transform="translate(-356.9 -164.4)" d="M356.9 620.4V775l24.7 13.9L445 826l44.8 26.3v-153l-9.3-6.2-92.7-54.1z"/><path id="polygon5348" class="st0" style="fill:#333" transform="translate(-356.9 -164.4)" d="m647.5 620.4-48 27.8-74.2 44.9-12.3 6.2v153l75.7-41.8 37.1-23.1 21.7-12.4v-12.4z"/><path id="polygon5350" class="st0" style="fill:#333" transform="translate(-356.9 -164.4)" d="m547 370-12.4-6.2-32.4-18.5-12.4 6.2-122.1 71.1 122.1 69.5 12.4 6.2 10.8-6.2 122.1-69.5z"/><path id="polygon5352" class="st0" style="fill:#333" transform="translate(-356.9 -164.4)" d="M356.9 581.8v12.3l40.2 24.8 64.9 35.5 27.8 18.6V518.4l-9.3-6.2-123.6-71.1z"/><path id="polygon5354" class="st0" style="fill:#333" transform="translate(-356.9 -164.4)" d="m635.1 601.9 12.4-7.8v-153l-122.2 71.1-12.3 6.2V673l49.4-27.8z"/></svg>